name ./resultDataOpenSim/trcMotMarkerGrf/sub09/grf-03-03.mot
datacolumns 19
datarows 12
range 0.95600000 1.00000000
endheader

                time	     ground_force_vx	     ground_force_vy	     ground_force_vz	     ground_force_px	     ground_force_py	     ground_force_pz	   l_ground_force_vx	   l_ground_force_vy	   l_ground_force_vz	   l_ground_force_px	   l_ground_force_py	   l_ground_force_pz	     ground_torque_x	     ground_torque_y	     ground_torque_z	   l_ground_torque_x	   l_ground_torque_y	   l_ground_torque_z	
          0.95600000	          0.00000000	          0.00000000	          0.00000000	          0.00000000	          0.00000000	          0.00000000	          1.59380583	        408.43484309	         13.93930443	          0.10725466	         -0.05000000	          0.03131122	          0.00000000	          0.00000000	          0.00000000	          0.00000000	         -2.85189062	          0.00000000	
          0.96000000	          0.00000000	          0.00000000	          0.00000000	          0.00000000	          0.00000000	          0.00000000	          4.02801876	        412.69179395	         13.51469029	          0.10721902	         -0.05000000	          0.03143698	          0.00000000	          0.00000000	          0.00000000	          0.00000000	         -3.12509584	          0.00000000	
          0.96400000	          0.00000000	          0.00000000	          0.00000000	          0.00000000	          0.00000000	          0.00000000	          6.79934722	        417.27935038	         13.01457670	          0.10737262	         -0.05000000	          0.03167390	          0.00000000	          0.00000000	          0.00000000	          0.00000000	         -3.41678072	          0.00000000	
          0.96800000	          0.00000000	          0.00000000	          0.00000000	          0.00000000	          0.00000000	          0.00000000	          9.92425205	        422.28766678	         12.48791324	          0.10777553	         -0.05000000	          0.03203244	          0.00000000	          0.00000000	          0.00000000	          0.00000000	         -3.71888223	          0.00000000	
          0.97200000	          0.00000000	          0.00000000	          0.00000000	          0.00000000	          0.00000000	          0.00000000	         13.39046676	        427.73012452	         11.99172287	          0.10838318	         -0.05000000	          0.03246225	          0.00000000	          0.00000000	          0.00000000	          0.00000000	         -4.02241056	          0.00000000	
          0.97600000	          0.00000000	          0.00000000	          0.00000000	          0.00000000	          0.00000000	          0.00000000	         17.18339156	        433.55868997	         11.58630065	          0.10906888	         -0.05000000	          0.03287446	          0.00000000	          0.00000000	          0.00000000	          0.00000000	         -4.31828111	          0.00000000	
          0.98000000	          0.00000000	          0.00000000	          0.00000000	          0.00000000	          0.00000000	          0.00000000	         21.28725897	        439.78466324	         11.32808556	          0.10967769	         -0.05000000	          0.03319338	          0.00000000	          0.00000000	          0.00000000	          0.00000000	         -4.59835361	          0.00000000	
          0.98400000	          0.00000000	          0.00000000	          0.00000000	          0.00000000	          0.00000000	          0.00000000	         25.67496506	        446.53931252	         11.26121647	          0.11010312	         -0.05000000	          0.03339503	          0.00000000	          0.00000000	          0.00000000	          0.00000000	         -4.85653551	          0.00000000	
          0.98800000	          0.00000000	          0.00000000	          0.00000000	          0.00000000	          0.00000000	          0.00000000	         30.30288388	        454.00201874	         11.40293946	          0.11034673	         -0.05000000	          0.03351143	          0.00000000	          0.00000000	          0.00000000	          0.00000000	         -5.08965125	          0.00000000	
          0.99200000	          0.00000000	          0.00000000	          0.00000000	          0.00000000	          0.00000000	          0.00000000	         35.10454570	        462.28516152	         11.72747603	          0.11051175	         -0.05000000	          0.03360922	          0.00000000	          0.00000000	          0.00000000	          0.00000000	         -5.29768951	          0.00000000	
          0.99600000	          0.00000000	          0.00000000	          0.00000000	          0.00000000	          0.00000000	          0.00000000	         39.99068195	        471.39883992	         12.16297095	          0.11071709	         -0.05000000	          0.03374620	          0.00000000	          0.00000000	          0.00000000	          0.00000000	         -5.48317852	          0.00000000	
          1.00000000	          0.00000000	          0.00000000	          0.00000000	          0.00000000	          0.00000000	          0.00000000	         44.86784738	        481.33128634	         12.61235886	          0.11100468	         -0.05000000	          0.03392963	          0.00000000	          0.00000000	          0.00000000	          0.00000000	         -5.64982615	          0.00000000	
